{
  "accessors": [
    {
      "bufferView": 2,
      "componentType": 5126,
      "count": 17669,
      "max": [
        16.840864181518555,
        3.1213369369506836,
        2.586019515991211
      ],
      "min": [
        -1.6543394327163696,
        -3.1213369369506836,
        -0.5287434458732605
      ],
      "type": "VEC3"
    },
    {
      "bufferView": 2,
      "byteOffset": 212028,
      "componentType": 5126,
      "count": 17669,
      "max": [
        0.9999815225601196,
        0.9999971985816956,
        1.0
      ],
      "min": [
        -0.7650598883628845,
        -0.9999971985816956,
        -0.9945383667945862
      ],
      "type": "VEC3"
    },
    {
      "bufferView": 1,
      "componentType": 5126,
      "count": 17669,
      "max": [
        0.8750001192092896,
        0.6267382502555847
      ],
      "min": [
        0.375,
        0.4999999403953552
      ],
      "type": "VEC2"
    },
    {
      "bufferView": 0,
      "componentType": 5125,
      "count": 97536,
      "type": "SCALAR"
    },
    {
      "bufferView": 2,
      "byteOffset": 424056,
      "componentType": 5126,
      "count": 25533,
      "max": [
        17.265958786010742,
        3.119917392730713,
        0.9975120425224304
      ],
      "min": [
        -10.597535133361816,
        -3.119917392730713,
        -1.046205997467041
      ],
      "type": "VEC3"
    },
    {
      "bufferView": 2,
      "byteOffset": 730452,
      "componentType": 5126,
      "count": 25533,
      "max": [
        0.9988800287246704,
        1.0,
        0.9999982714653015
      ],
      "min": [
        -1.0,
        -1.0,
        -1.0
      ],
      "type": "VEC3"
    },
    {
      "bufferView": 1,
      "byteOffset": 141352,
      "componentType": 5126,
      "count": 25533,
      "max": [
        0.8750002980232239,
        0.6250001192092896
      ],
      "min": [
        0.1249999850988388,
        0.1250000149011612
      ],
      "type": "VEC2"
    },
    {
      "bufferView": 0,
      "byteOffset": 390144,
      "componentType": 5125,
      "count": 138624,
      "type": "SCALAR"
    },
    {
      "bufferView": 2,
      "byteOffset": 1036848,
      "componentType": 5126,
      "count": 882,
      "max": [
        -1.9303226470947266,
        -0.20868656039237976,
        0.8906924724578857
      ],
      "min": [
        -5.08800745010376,
        -0.5001025795936584,
        0.5301420092582703
      ],
      "type": "VEC3"
    },
    {
      "bufferView": 2,
      "byteOffset": 1047432,
      "componentType": 5126,
      "count": 882,
      "max": [
        0.17642267048358917,
        0.99929279088974,
        0.9996278285980225
      ],
      "min": [
        -0.8182332515716553,
        -0.9998798370361328,
        -0.9396153688430786
      ],
      "type": "VEC3"
    },
    {
      "bufferView": 1,
      "byteOffset": 345616,
      "componentType": 5126,
      "count": 882,
      "max": [
        0.8750002384185791,
        0.5937500596046448
      ],
      "min": [
        0.8749998807907104,
        0.5590027570724487
      ],
      "type": "VEC2"
    },
    {
      "bufferView": 0,
      "byteOffset": 944640,
      "componentType": 5125,
      "count": 4992,
      "type": "SCALAR"
    },
    {
      "bufferView": 2,
      "byteOffset": 1058016,
      "componentType": 5126,
      "count": 700,
      "max": [
        1.1315128803253174,
        0.19652590155601501,
        1.5229451656341553
      ],
      "min": [
        -1.4671779870986938,
        -0.19652590155601501,
        0.972513735294342
      ],
      "type": "VEC3"
    },
    {
      "bufferView": 2,
      "byteOffset": 1066416,
      "componentType": 5126,
      "count": 700,
      "max": [
        0.019005529582500458,
        0.9895960688591003,
        0.9999998807907104
      ],
      "min": [
        -0.36325791478157043,
        -0.9895960688591003,
        0.14375300705432892
      ],
      "type": "VEC3"
    },
    {
      "bufferView": 1,
      "byteOffset": 352672,
      "componentType": 5126,
      "count": 700,
      "max": [
        0.8655790090560913,
        0.6267382502555847
      ],
      "min": [
        0.6495270133018494,
        0.5986672639846802
      ],
      "type": "VEC2"
    },
    {
      "bufferView": 0,
      "byteOffset": 964608,
      "componentType": 5125,
      "count": 3840,
      "type": "SCALAR"
    },
    {
      "bufferView": 2,
      "byteOffset": 1074816,
      "componentType": 5126,
      "count": 30918,
      "max": [
        1.4090932607650757,
        18.832965850830078,
        3.092784881591797
      ],
      "min": [
        -1.4090932607650757,
        -1.0734493732452393,
        -1.6444693803787231
      ],
      "type": "VEC3"
    },
    {
      "bufferView": 2,
      "byteOffset": 1445832,
      "componentType": 5126,
      "count": 30918,
      "max": [
        1.0,
        1.0,
        1.0
      ],
      "min": [
        -1.0,
        -1.0,
        -1.0
      ],
      "type": "VEC3"
    },
    {
      "bufferView": 1,
      "byteOffset": 358272,
      "componentType": 5126,
      "count": 30918,
      "max": [
        1.0000001192092896,
        0.7500001192092896
      ],
      "min": [
        0.0,
        0.01000000536441803
      ],
      "type": "VEC2"
    },
    {
      "bufferView": 0,
      "byteOffset": 979968,
      "componentType": 5125,
      "count": 155520,
      "type": "SCALAR"
    },
    {
      "bufferView": 2,
      "byteOffset": 1816848,
      "componentType": 5126,
      "count": 5456,
      "max": [
        1.4090932607650757,
        18.94911766052246,
        1.068953514099121
      ],
      "min": [
        -1.4090933799743652,
        -1.1896018981933594,
        -1.0
      ],
      "type": "VEC3"
    },
    {
      "bufferView": 2,
      "byteOffset": 1882320,
      "componentType": 5126,
      "count": 5456,
      "max": [
        1.0,
        1.0,
        0.9839909672737122
      ],
      "min": [
        -1.0,
        -1.0,
        -0.7797848582267761
      ],
      "type": "VEC3"
    },
    {
      "bufferView": 1,
      "byteOffset": 605616,
      "componentType": 5126,
      "count": 5456,
      "max": [
        1.0000001192092896,
        1.0000001192092896
      ],
      "min": [
        0.0,
        0.029038967564702034
      ],
      "type": "VEC2"
    },
    {
      "bufferView": 0,
      "byteOffset": 1602048,
      "componentType": 5125,
      "count": 26496,
      "type": "SCALAR"
    },
    {
      "bufferView": 2,
      "byteOffset": 1947792,
      "componentType": 5126,
      "count": 4214,
      "max": [
        1.0503681898117065,
        18.80988311767578,
        1.43025541305542
      ],
      "min": [
        -1.0503681898117065,
        -1.0503679513931274,
        -0.8769874572753906
      ],
      "type": "VEC3"
    },
    {
      "bufferView": 2,
      "byteOffset": 1998360,
      "componentType": 5126,
      "count": 4214,
      "max": [
        0.9999609589576721,
        0.9999609589576721,
        1.0
      ],
      "min": [
        -0.9999609589576721,
        -0.9999609589576721,
        -1.0
      ],
      "type": "VEC3"
    },
    {
      "bufferView": 1,
      "byteOffset": 649264,
      "componentType": 5126,
      "count": 4214,
      "max": [
        0.9874464869499207,
        0.48842543363571167
      ],
      "min": [
        0.01157461665570736,
        0.01157461479306221
      ],
      "type": "VEC2"
    },
    {
      "bufferView": 0,
      "byteOffset": 1708032,
      "componentType": 5125,
      "count": 19968,
      "type": "SCALAR"
    },
    {
      "bufferView": 2,
      "byteOffset": 2048928,
      "componentType": 5126,
      "count": 192,
      "max": [
        -0.32306531071662903,
        0.03747566044330597,
        0.03747563436627388
      ],
      "min": [
        -0.8735133409500122,
        -0.03747566044330597,
        -0.03747570514678955
      ],
      "type": "VEC3"
    },
    {
      "bufferView": 2,
      "byteOffset": 2051232,
      "componentType": 5126,
      "count": 192,
      "max": [
        6.35515888802729e-08,
        1.0,
        1.0
      ],
      "min": [
        -1.0,
        -1.0,
        -1.0
      ],
      "type": "VEC3"
    },
    {
      "bufferView": 1,
      "byteOffset": 682976,
      "componentType": 5126,
      "count": 192,
      "max": [
        0.945806086063385,
        0.445806086063385
      ],
      "min": [
        0.554193913936615,
        0.05419395491480827
      ],
      "type": "VEC2"
    },
    {
      "bufferView": 0,
      "byteOffset": 1787904,
      "componentType": 5125,
      "count": 576,
      "type": "SCALAR"
    },
    {
      "bufferView": 2,
      "byteOffset": 2053536,
      "componentType": 5126,
      "count": 483,
      "max": [
        0.5736178159713745,
        0.04593401774764061,
        0.04593406245112419
      ],
      "min": [
        -1.062756896018982,
        -0.04593401774764061,
        -0.04593406245112419
      ],
      "type": "VEC3"
    },
    {
      "bufferView": 2,
      "byteOffset": 2059332,
      "componentType": 5126,
      "count": 483,
      "max": [
        0.035218872129917145,
        1.0,
        1.0
      ],
      "min": [
        -1.0,
        -1.0,
        -1.0
      ],
      "type": "VEC3"
    },
    {
      "bufferView": 1,
      "byteOffset": 684512,
      "componentType": 5126,
      "count": 483,
      "max": [
        1.0,
        1.0
      ],
      "min": [
        0.0,
        0.01000000536441803
      ],
      "type": "VEC2"
    },
    {
      "bufferView": 0,
      "byteOffset": 1790208,
      "componentType": 5125,
      "count": 1440,
      "type": "SCALAR"
    }
  ],
  "asset": {
    "extras": {
      "author": "Peter Primini (https://sketchfab.com/Planetrix23)",
      "license": "CC-BY-4.0 (http://creativecommons.org/licenses/by/4.0/)",
      "source": "https://sketchfab.com/3d-models/penumbra-8c1a4b7429114d2fabf75700b7be5f01",
      "title": "Penumbra"
    },
    "generator": "Sketchfab-15.26.0",
    "version": "2.0"
  },
  "bufferViews": [
    {
      "buffer": 0,
      "byteLength": 1795968,
      "name": "floatBufferViews",
      "target": 34963
    },
    {
      "buffer": 0,
      "byteLength": 688376,
      "byteOffset": 1795968,
      "byteStride": 8,
      "name": "floatBufferViews",
      "target": 34962
    },
    {
      "buffer": 0,
      "byteLength": 2065128,
      "byteOffset": 2484344,
      "byteStride": 12,
      "name": "floatBufferViews",
      "target": 34962
    }
  ],
  "buffers": [
    {
      "byteLength": 4549472,
      "uri": "scene.bin"
    }
  ],
  "extensionsUsed": [
    "KHR_materials_emissive_strength"
  ],
  "materials": [
    {
      "doubleSided": true,
      "name": "Material.001",
      "pbrMetallicRoughness": {
        "baseColorFactor": [
          0.0134099,
          0.0134099,
          0.0134099,
          1.0
        ],
        "roughnessFactor": 0.22585928529379193
      }
    },
    {
      "doubleSided": true,
      "name": "Material",
      "pbrMetallicRoughness": {
        "baseColorFactor": [
          0.375748,
          0.375748,
          0.375748,
          1.0
        ],
        "roughnessFactor": 0.30163143261816083
      }
    },
    {
      "doubleSided": true,
      "name": "Material.003",
      "pbrMetallicRoughness": {
        "baseColorFactor": [
          0.0420268,
          0.0420268,
          0.0420268,
          1.0
        ],
        "roughnessFactor": 0.4123753402460846
      }
    },
    {
      "doubleSided": true,
      "name": "Material.006",
      "pbrMetallicRoughness": {
        "roughnessFactor": 0.0
      }
    },
    {
      "doubleSided": true,
      "emissiveFactor": [
        1.0,
        0.151442,
        0.0
      ],
      "extensions": {
        "KHR_materials_emissive_strength": {
          "emissiveStrength": 10.0
        }
      },
      "name": "Material.002",
      "pbrMetallicRoughness": {
        "baseColorFactor": [
          0.8,
          0.8,
          0.8,
          1.0
        ],
        "metallicFactor": 0.0,
        "roughnessFactor": 0.0
      }
    }
  ],
  "meshes": [
    {
      "name": "Cube_Material.001_0",
      "primitives": [
        {
          "attributes": {
            "NORMAL": 1,
            "POSITION": 0,
            "TEXCOORD_0": 2
          },
          "indices": 3,
          "material": 0,
          "mode": 4
        }
      ]
    },
    {
      "name": "Cube_Material_0",
      "primitives": [
        {
          "attributes": {
            "NORMAL": 5,
            "POSITION": 4,
            "TEXCOORD_0": 6
          },
          "indices": 7,
          "material": 1,
          "mode": 4
        }
      ]
    },
    {
      "name": "Cube_Material.003_0",
      "primitives": [
        {
          "attributes": {
            "NORMAL": 9,
            "POSITION": 8,
            "TEXCOORD_0": 10
          },
          "indices": 11,
          "material": 2,
          "mode": 4
        }
      ]
    },
    {
      "name": "Cube_Material.006_0",
      "primitives": [
        {
          "attributes": {
            "NORMAL": 13,
            "POSITION": 12,
            "TEXCOORD_0": 14
          },
          "indices": 15,
          "material": 3,
          "mode": 4
        }
      ]
    },
    {
      "name": "Cylinder_Material_0",
      "primitives": [
        {
          "attributes": {
            "NORMAL": 17,
            "POSITION": 16,
            "TEXCOORD_0": 18
          },
          "indices": 19,
          "material": 1,
          "mode": 4
        }
      ]
    },
    {
      "name": "Cylinder_Material.001_0",
      "primitives": [
        {
          "attributes": {
            "NORMAL": 21,
            "POSITION": 20,
            "TEXCOORD_0": 22
          },
          "indices": 23,
          "material": 0,
          "mode": 4
        }
      ]
    },
    {
      "name": "Cylinder_Material.002_0",
      "primitives": [
        {
          "attributes": {
            "NORMAL": 25,
            "POSITION": 24,
            "TEXCOORD_0": 26
          },
          "indices": 27,
          "material": 4,
          "mode": 4
        }
      ]
    },
    {
      "name": "Cylinder.001_Material_0",
      "primitives": [
        {
          "attributes": {
            "NORMAL": 29,
            "POSITION": 28,
            "TEXCOORD_0": 30
          },
          "indices": 31,
          "material": 1,
          "mode": 4
        }
      ]
    },
    {
      "name": "Cylinder.001_Material.003_0",
      "primitives": [
        {
          "attributes": {
            "NORMAL": 33,
            "POSITION": 32,
            "TEXCOORD_0": 34
          },
          "indices": 35,
          "material": 2,
          "mode": 4
        }
      ]
    }
  ],
  "nodes": [
    {
      "children": [
        1
      ],
      "matrix": [
        1.0,
        0.0,
        0.0,
        0.0,
        0.0,
        2.220446049250313e-16,
        -1.0,
        0.0,
        0.0,
        1.0,
        2.220446049250313e-16,
        0.0,
        0.0,
        0.0,
        0.0,
        1.0
      ],
      "name": "Sketchfab_model"
    },
    {
      "children": [
        2
      ],
      "matrix": [
        0.009999999776482582,
        0.0,
        0.0,
        0.0,
        0.0,
        0.0,
        0.009999999776482582,
        0.0,
        0.0,
        -0.009999999776482582,
        0.0,
        0.0,
        0.0,
        0.0,
        0.0,
        1.0
      ],
      "name": "1775119e698641ffbd1f574efaba9ff8.fbx"
    },
    {
      "children": [
        3,
        8,
        12
      ],
      "name": "RootNode"
    },
    {
      "children": [
        4,
        5,
        6,
        7
      ],
      "matrix": [
        14.705771446228027,
        0.0,
        0.0,
        0.0,
        0.0,
        -5.346737200482384e-06,
        -32.818038940429254,
        0.0,
        0.0,
        14.705771446227834,
        -2.395874275000465e-06,
        0.0,
        0.0,
        0.8524864912033081,
        0.0,
        1.0
      ],
      "name": "Cube"
    },
    {
      "mesh": 0,
      "name": "Cube_Material.001_0"
    },
    {
      "mesh": 1,
      "name": "Cube_Material_0"
    },
    {
      "mesh": 2,
      "name": "Cube_Material.003_0"
    },
    {
      "mesh": 3,
      "name": "Cube_Material.006_0"
    },
    {
      "children": [
        9,
        10,
        11
      ],
      "matrix": [
        -5.6247799906288e-07,
        -12.867996215820279,
        7.669922519824282e-07,
        0.0,
        -2.0964627230374598e-06,
        -7.669921605498158e-07,
        -12.867996215820119,
        0.0,
        37.691051483153764,
        -1.6475286110471397e-06,
        -6.140651722997088e-06,
        0.0,
        -1.5827847719192505,
        -5.805479049682617,
        114.26469421386719,
        1.0
      ],
      "name": "Cylinder"
    },
    {
      "mesh": 4,
      "name": "Cylinder_Material_0"
    },
    {
      "mesh": 5,
      "name": "Cylinder_Material.001_0"
    },
    {
      "mesh": 6,
      "name": "Cylinder_Material.002_0"
    },
    {
      "children": [
        13,
        14
      ],
      "matrix": [
        28.381893157958984,
        0.0,
        0.0,
        0.0,
        -0.0,
        -4.623997315721049e-06,
        -28.381893157958608,
        0.0,
        0.0,
        28.381893157958608,
        -4.623997315721049e-06,
        0.0,
        -21.65026092529297,
        11.50855541229248,
        11.529574394226074,
        1.0
      ],
      "name": "Cylinder.001"
    },
    {
      "mesh": 7,
      "name": "Cylinder.001_Material_0"
    },
    {
      "mesh": 8,
      "name": "Cylinder.001_Material.003_0"
    }
  ],
  "scene": 0,
  "scenes": [
    {
      "name": "Sketchfab_Scene",
      "nodes": [
        0
      ]
    }
  ]
}
